<?xml version="1.0" standalone="no"?>
<!DOCTYPE svg PUBLIC "-//W3C//DTD SVG 20010904//EN"
 "http://www.w3.org/TR/2001/REC-SVG-20010904/DTD/svg10.dtd">
<svg version="1.0" xmlns="http://www.w3.org/2000/svg"
 width="1833.000000pt" height="248.000000pt" viewBox="0 0 1833.000000 248.000000"
 preserveAspectRatio="xMidYMid meet">

<g transform="translate(0.000000,248.000000) scale(0.100000,-0.100000)"
fill="#000000" stroke="none">
<path d="M4686 2129 c-218 -25 -406 -105 -569 -243 -125 -104 -239 -291 -284
-465 -21 -80 -25 -119 -25 -236 -1 -285 77 -480 267 -670 155 -155 331 -245
548 -280 545 -88 1026 187 1174 672 24 80 27 103 27 263 1 184 -7 234 -56 360
-56 146 -179 306 -311 406 -199 151 -495 225 -771 193z m288 -379 c102 -26
166 -62 247 -138 107 -100 164 -228 176 -392 17 -245 -106 -474 -307 -572 -98
-47 -165 -62 -275 -61 -264 1 -458 140 -547 393 -32 88 -36 255 -9 359 55 219
220 378 436 421 76 15 199 11 279 -10z"/>
<path d="M13016 2129 c-218 -25 -406 -105 -569 -243 -125 -104 -239 -291 -284
-465 -21 -80 -25 -119 -25 -236 -1 -285 77 -480 267 -670 155 -155 331 -245
548 -280 545 -88 1026 187 1174 672 24 80 27 103 27 263 1 184 -7 234 -56 360
-56 146 -179 306 -311 406 -199 151 -495 225 -771 193z m288 -379 c102 -26
166 -62 247 -138 107 -100 164 -228 176 -392 17 -245 -106 -474 -307 -572 -98
-47 -165 -62 -275 -61 -264 1 -458 140 -547 393 -32 88 -36 255 -9 359 55 219
220 378 436 421 76 15 199 11 279 -10z"/>
<path d="M6160 1180 l0 -930 210 0 210 0 2 562 3 563 460 -562 460 -562 178 0
177 -1 0 930 0 930 -210 0 -210 0 0 -560 c0 -308 -3 -560 -7 -559 -5 0 -213
251 -463 557 l-455 557 -178 3 -177 2 0 -930z"/>
<path d="M8300 1180 l0 -930 680 0 680 0 0 175 0 175 -465 0 -465 0 -2 753 -3
752 -212 3 -213 2 0 -930z"/>
<path d="M9462 2098 c2 -7 162 -277 356 -600 l352 -586 0 -331 0 -331 215 0
215 0 0 328 0 327 359 597 c197 329 356 600 353 603 -3 3 -96 5 -207 5 l-202
0 -248 -411 c-200 -332 -250 -408 -260 -397 -7 7 -115 184 -240 393 -126 209
-235 388 -243 398 -14 15 -38 17 -234 17 -171 0 -219 -3 -216 -12z"/>
<path d="M14490 1180 l0 -930 210 0 210 0 2 562 3 563 460 -562 460 -562 178
0 177 -1 0 930 0 930 -210 0 -210 0 0 -560 c0 -308 -3 -560 -7 -559 -5 0 -213
251 -463 557 l-455 557 -178 3 -177 2 0 -930z"/>
<path d="M16630 1180 l0 -930 720 0 720 0 0 170 0 170 -505 0 -505 0 0 215 0
215 428 2 427 3 3 168 2 167 -430 0 -430 0 0 200 0 200 485 0 485 0 0 175 0
175 -700 0 -700 0 0 -930z"/>
</g>
</svg>
